<?xml version="1.0" encoding="UTF-8" standalone="no"?>
<!DOCTYPE svg PUBLIC "-//W3C//DTD SVG 1.1//EN" "http://www.w3.org/Graphics/SVG/1.1/DTD/svg11.dtd">
<svg width="100%" height="100%" viewBox="0 0 80 23" version="1.1" xmlns="http://www.w3.org/2000/svg" xmlns:xlink="http://www.w3.org/1999/xlink" xml:space="preserve" xmlns:serif="http://www.serif.com/" style="fill-rule:evenodd;clip-rule:evenodd;stroke-linejoin:round;stroke-miterlimit:2;">
    <g transform="matrix(1.0018,0,0,1.0018,-0.0718282,-0.0204864)">
        <path d="M9.126,8.654L9.126,4.788C9.126,4.61 9.112,4.433 9.083,4.257C9.259,4.284 9.437,4.298 9.614,4.3L12.529,4.3C14.747,4.3 16.049,4.644 16.049,6.661C16.049,7.971 15.24,9.139 12.619,9.139L9.614,9.139C9.44,9.141 9.265,9.152 9.092,9.174C9.114,9.002 9.125,8.828 9.126,8.654M9.126,17.526L9.126,13.05C9.127,12.875 9.115,12.7 9.09,12.527C9.264,12.55 9.438,12.562 9.613,12.563L12.078,12.563C14.043,12.563 16.449,12.563 16.449,15.285C16.449,17.307 14.728,18.007 12.406,18.007L9.613,18.007C9.44,18.01 9.268,18.025 9.097,18.051C8.926,18.077 9.127,17.783 9.127,17.526M2.06,1.896L2.06,20.514C2.06,21.118 2.096,21.333 1.667,21.599C1.239,21.864 0.82,21.9 0.131,22.017L0.117,22.017C0.049,22.035 0.061,22.295 0.13,22.295L15.187,22.295C21.541,22.295 24.212,19.773 24.212,15.841C24.212,12.934 22.858,11.157 20.178,10.49C20.154,10.49 20.135,10.471 20.135,10.447C20.135,10.423 20.154,10.404 20.178,10.404C21.886,9.871 23.456,8.635 23.456,5.609C23.456,1.505 20.683,0.121 14.634,0.121L0.133,0.121C0.063,0.121 0.049,0.381 0.118,0.397L0.131,0.397C0.821,0.516 1.249,0.557 1.668,0.817C2.087,1.077 2.059,1.294 2.059,1.897M77.944,1.897C77.944,1.294 77.908,1.082 78.336,0.816C78.766,0.55 79.183,0.514 79.873,0.396L79.886,0.396C79.954,0.38 79.942,0.12 79.873,0.12L68.763,0.12C68.695,0.12 68.682,0.378 68.751,0.396L68.764,0.396C69.464,0.484 69.791,0.556 70.208,0.816C70.625,1.076 70.599,1.294 70.599,1.897L70.599,13.086C70.599,15.638 69.138,17.597 66.237,17.597C63.336,17.597 61.874,15.637 61.874,13.086L61.874,1.9C61.874,1.297 61.838,1.082 62.267,0.816C62.696,0.55 63.034,0.491 63.711,0.396L63.724,0.396C63.792,0.378 63.779,0.118 63.71,0.118L53.23,0.118C53.152,0.118 53.168,0.38 53.23,0.394L53.243,0.394C53.626,0.417 53.89,0.439 54.126,0.64C54.476,0.937 54.53,1.292 54.53,1.896L54.53,12.896C54.53,18.198 57.431,22.7 66.235,22.7C75.04,22.7 77.941,18.198 77.941,12.895L77.944,1.897ZM44.28,22.297C44.35,22.297 44.364,22.037 44.295,22.022L44.282,22.022C43.592,21.903 43.164,21.862 42.745,21.602C42.326,21.342 42.354,21.122 42.354,20.517L42.354,13.45L50.034,2.042C50.456,1.415 50.724,1.089 51.07,0.799C51.163,0.728 51.26,0.662 51.359,0.601C51.609,0.454 51.897,0.383 52.188,0.394L52.201,0.394C52.27,0.384 52.291,0.118 52.212,0.118L41.85,0.118C41.766,0.118 41.783,0.39 41.85,0.398L41.861,0.398C42.364,0.398 42.983,0.398 42.882,1.119C42.826,1.821 39.84,6.139 38.775,7.778C38.616,8.01 38.507,8.273 38.453,8.55C38.398,8.274 38.286,8.013 38.123,7.783C36.64,5.577 34.104,2 34.032,1.121C33.97,0.373 34.55,0.399 35.052,0.399L35.066,0.399C35.138,0.399 35.164,0.124 35.079,0.124L24.192,0.124C24.127,0.124 24.134,0.374 24.199,0.399C24.203,0.4 24.208,0.4 24.212,0.399C24.677,0.446 24.934,0.413 25.474,0.679C25.571,0.731 25.663,0.792 25.749,0.861C26.094,1.149 26.306,1.421 26.728,2.046L34.398,13.406L34.398,20.518C34.398,21.122 34.435,21.338 34.008,21.603C33.58,21.869 33.16,21.905 32.471,22.022L32.458,22.022C32.388,22.039 32.401,22.299 32.471,22.299L44.281,22.297L44.28,22.297Z" style="fill:rgb(0,46,93);fill-rule:nonzero;"/>
    </g>
</svg>
