<?xml version="1.0" encoding="UTF-8" standalone="no"?>
<!DOCTYPE svg PUBLIC "-//W3C//DTD SVG 1.1//EN" "http://www.w3.org/Graphics/SVG/1.1/DTD/svg11.dtd">
<svg width="100%" height="100%" viewBox="0 0 2500 726" version="1.1" xmlns="http://www.w3.org/2000/svg" xmlns:xlink="http://www.w3.org/1999/xlink" xml:space="preserve" xmlns:serif="http://www.serif.com/" style="fill-rule:evenodd;clip-rule:evenodd;stroke-linejoin:round;stroke-miterlimit:2;">
    <g transform="matrix(1,0,0,1,27.4604,0)">
        <path d="M2177.38,0L2177.38,532.993L1856.74,532.993L1856.74,-0L1654.84,-0L1654.84,558.099L1733.3,726L2311.8,726L2379.8,558.099L2379.8,0L2177.38,0ZM457.572,0L457.572,153.778L588.336,153.778L588.336,532.993L267.703,532.993L267.703,-0L65.281,-0L65.281,558.099L144.262,726L712.3,726L790.235,558.099L790.235,0L457.572,0ZM1411.1,0L1224.89,511.548L1038.69,-0L817.434,-0L1088.38,726L1361.41,726L1632.35,-0L1411.1,0Z" style="fill:rgb(30,91,57);fill-rule:nonzero;"/>
    </g>
</svg>
