<?xml version="1.0" encoding="UTF-8" standalone="no"?>
<!DOCTYPE svg PUBLIC "-//W3C//DTD SVG 1.1//EN" "http://www.w3.org/Graphics/SVG/1.1/DTD/svg11.dtd">
<svg width="100%" height="100%" viewBox="0 0 16 16" version="1.1" xmlns="http://www.w3.org/2000/svg" xmlns:xlink="http://www.w3.org/1999/xlink" xml:space="preserve" xmlns:serif="http://www.serif.com/" style="fill-rule:evenodd;clip-rule:evenodd;stroke-linejoin:round;stroke-miterlimit:2;">
    <circle cx="8" cy="8" r="1.5"/>
    <path d="M13,1C14.097,1 15,1.903 15,3L15,13C15,14.097 14.097,15 13,15L3,15C1.903,15 1,14.097 1,13L1,3C1,1.903 1.903,1 3,1L13,1ZM3,0C1.354,0 -0,1.354 0,3L0,13C0,14.646 1.354,16 3,16L13,16C14.646,16 16,14.646 16,13L16,3C16,1.354 14.646,0 13,0L3,0Z" style="fill:rgb(25,135,84);fill-rule:nonzero;"/>
</svg>
