<?xml version="1.0" encoding="UTF-8" standalone="no"?>
<!DOCTYPE svg PUBLIC "-//W3C//DTD SVG 1.1//EN" "http://www.w3.org/Graphics/SVG/1.1/DTD/svg11.dtd">
<svg width="100%" height="100%" viewBox="0 0 16 16" version="1.1" xmlns="http://www.w3.org/2000/svg" xmlns:xlink="http://www.w3.org/1999/xlink" xml:space="preserve" xmlns:serif="http://www.serif.com/" style="fill-rule:evenodd;clip-rule:evenodd;stroke-linejoin:round;stroke-miterlimit:2;">
    <path d="M13,1C14.097,1 15,1.903 15,3L15,13C15,14.097 14.097,15 13,15L3,15C1.903,15 1,14.097 1,13L1,3C1,1.903 1.903,1 3,1L13,1ZM3,0C1.354,0 -0,1.354 0,3L0,13C0,14.646 1.354,16 3,16L13,16C14.646,16 16,14.646 16,13L16,3C16,1.354 14.646,0 13,0L3,0Z" style="fill:rgb(220,53,69);fill-rule:nonzero;"/>
    <path d="M5.5,4C5.5,4.823 4.823,5.5 4,5.5C3.177,5.5 2.5,4.823 2.5,4C2.5,3.177 3.177,2.5 4,2.5C4.823,2.5 5.5,3.177 5.5,4ZM13.5,4C13.5,4.823 12.823,5.5 12,5.5C11.177,5.5 10.5,4.823 10.5,4C10.5,3.177 11.177,2.5 12,2.5C12.823,2.5 13.5,3.177 13.5,4ZM13.5,12C13.5,12.823 12.823,13.5 12,13.5C11.177,13.5 10.5,12.823 10.5,12C10.5,11.177 11.177,10.5 12,10.5C12.823,10.5 13.5,11.177 13.5,12ZM5.5,12C5.5,12.823 4.823,13.5 4,13.5C3.177,13.5 2.5,12.823 2.5,12C2.5,11.177 3.177,10.5 4,10.5C4.823,10.5 5.5,11.177 5.5,12ZM9.5,8C9.5,8.823 8.823,9.5 8,9.5C7.177,9.5 6.5,8.823 6.5,8C6.5,7.177 7.177,6.5 8,6.5C8.823,6.5 9.5,7.177 9.5,8Z" style="fill:rgb(220,53,69);fill-rule:nonzero;"/>
</svg>
